<?xml version="1.0" encoding="utf-8"?><!-- Uploaded to: SVG Repo, www.svgrepo.com, Generator: SVG Repo Mixer Tools -->
<svg width="800px" height="800px" viewBox="0 0 24 24" fill="none" xmlns="http://www.w3.org/2000/svg">
<path d="M4 2C3.44772 2 3 2.44772 3 3C3 3.55228 3.44772 4 4 4H20C20.5523 4 21 3.55228 21 3C21 2.44772 20.5523 2 20 2H4Z" fill="#000000"/>
<path d="M6.29289 13.7071C6.68342 14.0976 7.31658 14.0976 7.70711 13.7071L11 10.4142L11 21C11 21.5523 11.4477 22 12 22C12.5523 22 13 21.5523 13 21L13 10.4142L16.2929 13.7071C16.6834 14.0976 17.3166 14.0976 17.7071 13.7071C18.0976 13.3166 18.0976 12.6834 17.7071 12.2929L12.7071 7.29289C12.3166 6.90237 11.6834 6.90237 11.2929 7.29289L6.29289 12.2929C5.90237 12.6834 5.90237 13.3166 6.29289 13.7071Z" fill="#000000"/>
</svg>